<svg xmlns="http://www.w3.org/2000/svg" viewBox="-12 -12 143.744 143.731">
  <path fill="#1be98e" d="M31.1213,64.7091H0v-16.6682h39.9222c2.5268,0,4.1195-2.6942,2.9338-4.9334L23.9487,8.3221,38.3299,0l18.6438,34.3304c1.2694,2.323,4.5741,2.323,5.8195,0L81.4135,0l14.381,8.3221-14.3333,27.2057c-10.3696,18.0453-29.5406,29.1696-50.304,29.1696h-.0359v.0116Z"/>
  <path fill="#1be98e" d="M88.6225,55.034h31.1212v16.6682h-39.9226c-2.5264,0-4.1191,2.6942-2.9338,4.9334l18.9074,34.7733-14.381,8.3223-18.6442-34.3302c-1.269-2.3229-4.5741-2.3229-5.8195,0l-18.6198,34.3302-14.3812-8.3223,14.3331-27.2056c10.37-18.045,29.5406-29.1693,50.3042-29.1693h.036Z"/>
</svg>
