<?xml version="1.0" encoding="UTF-8"?><svg id="Layer_2" xmlns="http://www.w3.org/2000/svg" viewBox="0 0 1000 115.1207"><g id="Components"><g id="_45e2a570-4472-4618-9089-f65ee2db8f0c_1"><path d="M0,57.6319v56.6577h15.9559V47.2442c0-1.8508,1.4983-3.3573,3.3544-3.3573h45.5125v-15.0792H29.057C11.4184,28.8078,0,40.1999,0,57.6319Z" style="fill:#072928;"/><path d="M129.5001,27.9749h-28.0572c-17.6403,0-29.057,11.3915-29.057,28.8235v29.4982h.0426c0,17.432,11.4166,28.8241,29.057,28.8241h17.9678c6.3795,0,11.9309-.5025,18.8094-4.3618l20.1519-11.3915v-16.7584l-28.5579,16.0983c-3.0252,1.6786-4.5381,1.3483-7.8918,1.3483h-30.2407c-1.8567,0-3.369-1.5065-3.369-3.3573v-19.9429h70.2036v-19.9569c0-17.432-11.4184-28.8235-29.0587-28.8235ZM142.5878,62.4944h-54.246v-16.0977c0-1.8508,1.5129-3.3573,3.3678-3.3573h47.5238c1.8421,0,3.3544,1.5065,3.3544,3.3573v16.0977Z" style="fill:#072928;"/><path d="M224.0656,28.8078h-48.0532v15.0792h57.7865c1.8549,0,3.3678,1.5065,3.3678,3.3573v14.0747h-39.475c-17.4687,0-29.0576,10.8896-29.0576,26.4853v.5008c0,16.4281,12.0879,26.8157,27.3731,26.8157h6.4607c6.379,0,11.9303-1.0045,18.8106-4.8643l15.8882-8.8654v12.8986h15.9559v-56.6577c0-17.432-11.5888-28.8241-29.057-28.8241ZM237.1515,85.2787l-25.531,14.2475c-3.0398,1.6786-4.5392,1.3483-7.9064,1.3483h-15.7843v.0134c-1.8339-.0076-3.3392-1.51-3.3392-3.3561v-18.1067c0-1.8502,1.4977-3.3573,3.3526-3.3573h49.2083v9.2109Z" style="fill:#072928;"/><path d="M414.5945,27.9614h-30.9131c-17.6392,0-29.0576,11.3921-29.0576,28.8241v29.4982c0,17.432,11.4184,28.8235,29.0576,28.8235h30.9131c17.6392,0,29.057-11.3915,29.057-28.8235v-29.4982c0-17.432-11.4178-28.8241-29.057-28.8241ZM427.6956,96.6854c0,1.8508-1.5123,3.3573-3.369,3.3573h-50.3926c-1.8561,0-3.369-1.5065-3.369-3.3573v-50.2729c0-1.8508,1.5129-3.3573,3.369-3.3573h50.3926c1.8567,0,3.369,1.5065,3.369,3.3573v50.2729Z" style="fill:#072928;"/><path d="M514.3296,27.9749h-9.0773c-6.3795,0-11.9309.502-18.8112,4.3612l-15.2846,8.709h-.0134v-12.2385h-15.9559v85.4958h15.9559v-56.6577l23.6913-13.2424c3.0252-1.6786,4.5375-1.3489,7.8918-1.3489h19.6523c1.8549,0,3.3678,1.5065,3.3678,3.3573v67.8777h15.9559v-57.49c0-17.432-11.4184-28.8235-27.3725-28.8235Z" style="fill:#072928;"/><path d="M328.0504,65.0906c-2.2541-.6455-4.667-.9899-7.2078-.9899h-38.8084c-2.2687,0-3.924-1.5205-3.924-3.9164v-12.4398c0-2.396,1.6407-3.917,3.924-3.917h58.7881v-15.0214h-53.2911c-2.5407,0-4.9525.3438-7.2078,1.0039-10.1186,2.8839-17.0106,11.8369-17.0106,23.0422v3.3001c0,9.6563,6.9066,19.082,17.0106,21.9659,2.2553.6455,4.667.9899,7.2078.9899h38.8084c2.2687,0,3.9252,1.5211,3.9252,3.917v12.1089c0,2.396-1.6419,3.917-3.9252,3.917h-61.6289v15.2228h56.1318c2.5407,0,4.9536-.5597,7.2078-1.2199,10.1034-2.8839,17.0117-11.8363,17.0117-23.0417v-1.5211c0-9.6557-6.9084-20.5167-17.0117-23.4006Z" style="fill:#072928;"/><path d="M611.3682,28.7955h-10.4507c-6.2044,0-11.1026.8166-17.6351,4.5719l-20.2476,11.4301V0h-9.7969v114.3024h9.7969v-59.3805l25.1464-14.2066c5.0622-2.7754,6.5319-2.6125,11.2666-2.6125h17.7991c4.5719,0,8.0004,3.4291,8.0004,8.001v68.1987h9.7987v-61.1771c0-13.8792-10.1238-24.3298-23.6779-24.3298Z" style="fill:#072928;"/><path d="M702.549,27.957h-32.4954c-14.2054,0-24.4921,10.4507-24.4921,25.5263v38.5035c0,12.8472,10.2867,23.1339,24.4921,23.1339h19.9219c6.2044,0,10.9404-.6525,17.6351-4.4091l19.2694-11.1026v-10.2878l-24.331,13.8792c-5.0616,2.9394-6.5313,2.7765-11.2672,2.7765h-27.9229c-4.5713,0-8.001-3.4285-8.001-8.0016v-21.3373h71.6844v-24.3512c0-13.8792-10.1232-24.3298-24.4932-24.3298ZM717.2458,67.8199h-61.888v-22.5547c0-4.5719,3.4297-8.0016,8.001-8.0016h45.8849c4.5725,0,8.0022,3.4297,8.0022,8.0016v22.5547Z" style="fill:#072928;"/><path d="M790.0252,28.8054h-47.8437v9.1444h54.5384c4.5737,0,8.0022,3.4297,8.0022,8.001v19.9085h-44.9055c-14.2066,0-24.4932,8.9284-24.4932,21.9916v3.9188c0,13.3895,10.4512,23.351,23.6773,23.351h7.3484c6.2044,0,10.9392-.9806,17.6351-4.7359l20.7379-11.7575v15.8765h9.7975v-60.172c0-15.2391-10.2878-25.5263-24.4944-25.5263ZM804.7221,88.5035l-25.7995,14.6969c-5.0628,2.7754-6.5325,2.6125-11.2684,2.6125h-14.5323c-4.5725,0-8.001-3.4291-8.001-8.0022v-16.1648c0-4.5719,3.4285-6.8056,8.001-6.8056h51.6002v13.6632Z" style="fill:#072928;"/><rect x="825.035" width="9.7987" height="114.3024" style="fill:#072928;"/><path d="M855.1467,0h-9.7975v89.9726c0,13.8792,10.1244,24.3298,24.4932,24.3298h37.8334v-9.3072h-44.5281c-4.5713,0-8.001-3.4291-8.001-8.001v-59.2375l52.5291-.0064v-8.9281h-52.5291V0Z" style="fill:#072928;"/><path d="M976.3216,31.188h-10.4501c-6.2044,0-11.1026.8166-17.6351,4.5719l-20.2476,11.4301V0h-9.7975v114.3024h9.7975v-56.9881l25.1458-14.2066c5.0628-2.7754,6.5325-2.6125,11.2672-2.6125h17.7985c4.5725,0,8.0022,3.4297,8.0022,8.001v65.8062h9.7975v-58.784c0-13.8797-10.1244-24.3304-23.6784-24.3304Z" style="fill:#072928;"/></g></g></svg>