<?xml version="1.0" encoding="UTF-8"?><svg id="Layer_2" xmlns="http://www.w3.org/2000/svg" viewBox="0 0 1000 119.7312"><g id="Components"><g id="_1b3f09d3-b219-4963-b952-5fdd3a02697f_1"><path d="M157.8029,48.8191v47.717h13.438v-56.4654c0-1.5588,1.2619-2.8275,2.825-2.8275h38.3305v-12.6996h-30.1218c-14.8552,0-24.4717,9.5944-24.4717,24.2756Z" style="fill:#072928;"/><path d="M266.8675,23.8421h-23.6297c-14.8566,0-24.4717,9.5939-24.4717,24.2751v24.8433h.0359c0,14.6812,9.6151,24.2756,24.4717,24.2756h15.1324c5.3728,0,10.0481-.4232,15.8413-3.6735l16.9719-9.5939v-14.1139l-24.0514,13.5579c-2.5478,1.4137-3.8219,1.1355-6.6465,1.1355h-25.4686c-1.5637,0-2.8373-1.2687-2.8373-2.8275v-16.7959h59.1253v-16.8077c0-14.6812-9.6165-24.2751-24.4732-24.2751ZM277.8899,52.9143h-45.6858v-13.5574c0-1.5588,1.2741-2.8275,2.8363-2.8275h40.0244c1.5514,0,2.825,1.2687,2.825,2.8275v13.5574Z" style="fill:#072928;"/><path d="M346.5103,24.5435h-40.4703v12.6996h48.6677c1.5622,0,2.8363,1.2687,2.8363,2.8275v11.8537h-33.2457c-14.7121,0-24.4722,9.1712-24.4722,22.3059v.4218c0,13.8357,10.1804,22.5841,23.0535,22.5841h5.4412c5.3723,0,10.0476-.846,15.8422-4.0967l13.381-7.4664v10.8632h13.438v-47.717c0-14.6812-9.7601-24.2756-24.4717-24.2756ZM357.5313,72.1032l-21.5021,11.9992c-2.5601,1.4137-3.8229,1.1355-6.6588,1.1355h-13.2935v.0113c-1.5445-.0064-2.8123-1.2717-2.8123-2.8265v-15.2494c0-1.5583,1.2614-2.8275,2.8236-2.8275h41.4431v7.7574Z" style="fill:#072928;"/><path d="M506.9732,23.8307h-26.0349c-14.8557,0-24.4722,9.5944-24.4722,24.2756v24.8433c0,14.6812,9.6165,24.2751,24.4722,24.2751h26.0349c14.8557,0,24.4717-9.5939,24.4717-24.2751v-24.8433c0-14.6812-9.616-24.2756-24.4717-24.2756ZM518.0069,81.7099c0,1.5588-1.2737,2.8275-2.8373,2.8275h-42.4405c-1.5632,0-2.8373-1.2687-2.8373-2.8275v-42.3397c0-1.5588,1.2741-2.8275,2.8373-2.8275h42.4405c1.5637,0,2.8373,1.2687,2.8373,2.8275v42.3397Z" style="fill:#072928;"/><path d="M590.9698,23.8421h-7.6449c-5.3728,0-10.0481.4227-15.8427,3.673l-12.8727,7.3347h-.0113v-10.3072h-13.438v72.0043h13.438v-47.717l19.9527-11.1527c2.5478-1.4137,3.8214-1.136,6.6465-1.136h16.5511c1.5622,0,2.8363,1.2687,2.8363,2.8275v57.1664h13.438v-48.4179c0-14.6812-9.6165-24.2751-23.053-24.2751Z" style="fill:#072928;"/><path d="M434.086,55.1008c-1.8984-.5437-3.9306-.8337-6.0704-.8337h-32.6843c-1.9107,0-3.3048-1.2805-3.3048-3.2984v-10.4768c0-2.0179,1.3818-3.2989,3.3048-3.2989h49.5112v-12.651h-44.8816c-2.1398,0-4.171.2895-6.0704.8455-8.5218,2.4288-14.3262,9.969-14.3262,19.4061v2.7793c0,8.1325,5.8167,16.0708,14.3262,18.4997,1.8994.5437,3.9306.8337,6.0704.8337h32.6843c1.9107,0,3.3058,1.281,3.3058,3.2989v10.1981c0,2.0179-1.3828,3.2989-3.3058,3.2989h-51.9036v12.8206h47.2741c2.1398,0,4.1719-.4714,6.0704-1.0274,8.509-2.4288,14.3272-9.9685,14.3272-19.4056v-1.281c0-8.132-5.8182-17.2791-14.3272-19.7079Z" style="fill:#072928;"/><path d="M672.6954,24.5332h-8.8015c-5.2254,0-9.3506.6877-14.8522,3.8504l-17.0525,9.6264V.2817h-8.251v96.2652h8.251v-50.0101l21.1782-11.9648c4.2634-2.3374,5.5011-2.2003,9.4887-2.2003h14.9904c3.8504,0,6.7379,2.888,6.7379,6.7384v57.4367h8.2524v-51.5232c0-11.689-8.5262-20.4905-19.9414-20.4905Z" style="fill:#072928;"/><path d="M749.4876,23.827h-27.3675c-11.9638,0-20.6272,8.8015-20.6272,21.4982v32.4275c0,10.8199,8.6634,19.4833,20.6272,19.4833h16.7782c5.2254,0,9.2139-.5496,14.8522-3.7133l16.2286-9.3506v-8.6644l-20.4915,11.689c-4.2629,2.4755-5.5006,2.3384-9.4892,2.3384h-23.5166c-3.85,0-6.7384-2.8875-6.7384-6.7389v-17.9702h60.3724v-20.5085c0-11.689-8.5257-20.4905-20.6281-20.4905ZM761.8653,57.3994h-52.1219v-18.9955c0-3.8504,2.8885-6.7389,6.7384-6.7389h38.6441c3.8509,0,6.7394,2.8885,6.7394,6.7389v18.9955Z" style="fill:#072928;"/><path d="M823.1598,24.5416h-40.2938v7.7014h45.9321c3.8519,0,6.7394,2.8885,6.7394,6.7384v16.7669h-37.8192c-11.9648,0-20.6281,7.5195-20.6281,18.5213v3.3004c0,11.2766,8.802,19.6661,19.9409,19.6661h6.1888c5.2254,0,9.213-.8258,14.8522-3.9886l17.4654-9.9021v13.3711h8.2515v-50.6767c0-12.8343-8.6644-21.4982-20.6291-21.4982ZM835.5375,74.8191l-21.7283,12.3777c-4.2639,2.3374-5.5016,2.2003-9.4902,2.2003h-12.2391c-3.8509,0-6.7384-2.888-6.7384-6.7394v-13.614c0-3.8504,2.8875-5.7317,6.7384-5.7317h43.4575v11.5071Z" style="fill:#072928;"/><rect x="852.645" y=".2817" width="8.2524" height="96.2652" style="fill:#072928;"/><path d="M878.005.2817h-8.2515v75.7747c0,11.689,8.5267,20.4905,20.6281,20.4905h31.8631v-7.8385h-37.5014c-3.85,0-6.7384-2.888-6.7384-6.7384v-49.8897l44.2398-.0054v-7.5192h-44.2398V.2817Z" style="fill:#072928;"/><path d="M980.0581,26.5481h-8.801c-5.2254,0-9.3506.6877-14.8522,3.8504l-17.0525,9.6264V.2817h-8.2515v96.2652h8.2515v-47.9952l21.1777-11.9648c4.2639-2.3374,5.5016-2.2003,9.4892-2.2003h14.9899c3.8509,0,6.7394,2.8885,6.7394,6.7384v55.4218h8.2515v-49.5077c0-11.6895-8.5267-20.491-19.9419-20.491Z" style="fill:#072928;"/><path d="M31.1213,64.7091H0v-16.6682h39.9222c2.5268,0,4.1195-2.6942,2.9338-4.9334L23.9487,8.3221,38.3299,0l18.6438,34.3304c1.2694,2.323,4.5741,2.323,5.8195,0L81.4135,0l14.381,8.3221-14.3333,27.2057c-10.3696,18.0453-29.5406,29.1696-50.304,29.1696h-.0359v.0116Z" style="fill:#1be98e;"/><path d="M88.6225,55.034h31.1212v16.6682h-39.9226c-2.5264,0-4.1191,2.6942-2.9338,4.9334l18.9074,34.7733-14.381,8.3223-18.6442-34.3302c-1.269-2.3229-4.5741-2.3229-5.8195,0l-18.6198,34.3302-14.3812-8.3223,14.3331-27.2056c10.37-18.045,29.5406-29.1693,50.3042-29.1693h.036Z" style="fill:#1be98e;"/></g></g></svg>