<svg xmlns="http://www.w3.org/2000/svg" width="395" height="38" fill="currentColor" viewBox="0 0 395 38">
  <path d="M14.72 10.305c.359 0 .773.023 1.241.07a8.62 8.62 0 0 1 1.172.14l-.539 6.704c-.234-.078-.57-.133-1.008-.164a10.14 10.14 0 0 0-1.101-.07c-.922 0-1.82.117-2.695.35a6.59 6.59 0 0 0-2.32 1.15c-.688.515-1.235 1.203-1.641 2.062-.39.844-.586 1.883-.586 3.117V37H.094V10.797h5.414l1.055 4.406h.352a11.015 11.015 0 0 1 1.922-2.437 9.181 9.181 0 0 1 2.648-1.782c1-.453 2.078-.68 3.234-.68Zm17.016 0c2.422 0 4.508.468 6.258 1.406 1.75.922 3.101 2.266 4.054 4.031.953 1.766 1.43 3.922 1.43 6.469v3.469H26.58c.078 2.015.68 3.601 1.804 4.758 1.141 1.14 2.72 1.71 4.735 1.71 1.672 0 3.203-.171 4.593-.515 1.391-.344 2.82-.86 4.29-1.547v5.531a17.025 17.025 0 0 1-4.079 1.406c-1.406.297-3.117.446-5.132.446-2.625 0-4.953-.485-6.985-1.453-2.015-.97-3.601-2.446-4.758-4.43-1.14-1.984-1.71-4.484-1.71-7.5 0-3.063.515-5.61 1.546-7.64 1.047-2.048 2.5-3.579 4.36-4.594 1.86-1.032 4.023-1.547 6.492-1.547Zm.047 5.086c-1.39 0-2.547.445-3.469 1.336-.906.89-1.43 2.289-1.57 4.195h10.031c-.016-1.063-.211-2.008-.586-2.836a4.403 4.403 0 0 0-1.64-1.969c-.72-.484-1.641-.726-2.766-.726Zm27.282-5.133c3.516 0 6.21.765 8.086 2.297 1.875 1.53 2.812 3.86 2.812 6.984V37h-4.992l-1.383-3.563h-.187c-.75.938-1.516 1.704-2.297 2.297a7.88 7.88 0 0 1-2.695 1.313c-1.016.281-2.25.422-3.703.422-1.547 0-2.938-.297-4.172-.89-1.219-.595-2.18-1.5-2.883-2.72-.703-1.234-1.055-2.797-1.055-4.687 0-2.781.977-4.828 2.93-6.14 1.953-1.329 4.883-2.063 8.789-2.204l4.547-.14v-1.149c0-1.375-.36-2.383-1.078-3.023-.719-.641-1.719-.961-3-.961-1.266 0-2.508.18-3.727.539-1.219.36-2.437.812-3.656 1.36l-2.367-4.829c1.39-.734 2.945-1.313 4.664-1.734a22.631 22.631 0 0 1 5.367-.633Zm3.797 14.601-2.766.094c-2.312.063-3.922.477-4.828 1.242-.89.766-1.336 1.774-1.336 3.024 0 1.093.32 1.875.961 2.343.64.454 1.477.68 2.508.68 1.531 0 2.82-.453 3.867-1.36 1.063-.905 1.594-2.195 1.594-3.866v-2.157Zm31.806 4.36c0 1.781-.422 3.289-1.266 4.523-.828 1.219-2.07 2.149-3.727 2.79-1.656.624-3.718.937-6.187.937-1.828 0-3.399-.117-4.711-.352a19.403 19.403 0 0 1-3.938-1.172V30.04a28.603 28.603 0 0 0 4.57 1.594c1.641.406 3.079.61 4.313.61 1.39 0 2.383-.204 2.977-.61.61-.422.914-.969.914-1.64 0-.438-.125-.829-.375-1.173-.235-.36-.75-.758-1.547-1.195-.797-.453-2.047-1.04-3.75-1.758-1.64-.687-2.992-1.383-4.055-2.086-1.047-.703-1.828-1.531-2.343-2.484-.5-.969-.75-2.195-.75-3.68 0-2.422.937-4.242 2.812-5.46 1.89-1.235 4.414-1.852 7.57-1.852 1.625 0 3.172.164 4.64.492 1.485.328 3.009.851 4.571 1.57l-2.156 5.156a36.59 36.59 0 0 0-3.68-1.382 11.554 11.554 0 0 0-3.492-.54c-1.047 0-1.836.141-2.367.422-.531.282-.797.711-.797 1.29 0 .421.133.796.398 1.125.282.328.813.695 1.594 1.101.797.39 1.961.898 3.492 1.523 1.485.61 2.774 1.25 3.868 1.922 1.093.657 1.937 1.477 2.53 2.461.595.97.892 2.227.892 3.774Zm28.43-5.367c0 2.187-.297 4.125-.891 5.812-.578 1.688-1.429 3.117-2.554 4.29-1.11 1.155-2.453 2.03-4.031 2.624-1.563.594-3.329.89-5.297.89-1.844 0-3.539-.296-5.086-.89a11.3 11.3 0 0 1-4.008-2.625c-1.125-1.172-2-2.601-2.625-4.289-.61-1.687-.914-3.625-.914-5.812 0-2.907.516-5.368 1.547-7.383 1.031-2.016 2.5-3.547 4.406-4.594 1.906-1.047 4.18-1.57 6.82-1.57 2.453 0 4.625.523 6.516 1.57 1.906 1.047 3.398 2.578 4.476 4.594 1.094 2.015 1.641 4.476 1.641 7.383Zm-18.117 0c0 1.718.187 3.164.562 4.335.375 1.172.961 2.055 1.758 2.649.797.594 1.836.89 3.117.89 1.266 0 2.289-.296 3.071-.89.797-.594 1.375-1.477 1.734-2.648.375-1.172.563-2.618.563-4.336 0-1.735-.188-3.172-.563-4.313-.359-1.156-.937-2.023-1.734-2.602-.797-.578-1.836-.867-3.117-.867-1.891 0-3.266.649-4.125 1.946-.844 1.297-1.266 3.242-1.266 5.836Zm37.946-13.547c2.797 0 5.047.765 6.75 2.297 1.703 1.515 2.555 3.953 2.555 7.312V37h-7.149V21.695c0-1.875-.343-3.289-1.031-4.242-.672-.953-1.734-1.43-3.187-1.43-2.188 0-3.68.743-4.477 2.227-.797 1.484-1.195 3.625-1.195 6.422V37h-7.149V10.797h5.461l.961 3.351h.399a7.211 7.211 0 0 1 2.086-2.203 9.162 9.162 0 0 1 2.789-1.242 12.722 12.722 0 0 1 3.187-.398Zm14.696 23.343c0-1.468.399-2.5 1.196-3.093.812-.594 1.789-.89 2.929-.89 1.11 0 2.063.296 2.86.89.812.593 1.219 1.625 1.219 3.093 0 1.407-.407 2.422-1.219 3.047-.797.625-1.75.938-2.86.938-1.14 0-2.117-.313-2.929-.938-.797-.625-1.196-1.64-1.196-3.047ZM175.601.531V11.43c0 .625-.016 1.258-.047 1.898a18.176 18.176 0 0 1-.164 1.735h.258a7.629 7.629 0 0 1 2.015-2.274 8.814 8.814 0 0 1 2.813-1.406 11.065 11.065 0 0 1 3.328-.492c2.063 0 3.781.328 5.156.984a6.483 6.483 0 0 1 3.117 3.047c.704 1.375 1.055 3.156 1.055 5.344V37h-3.844V20.523c0-2.14-.492-3.742-1.476-4.804-.969-1.063-2.461-1.594-4.477-1.594-1.906 0-3.429.367-4.57 1.102-1.125.718-1.938 1.78-2.438 3.187-.484 1.406-.726 3.125-.726 5.156V37h-3.891V.531h3.891Zm34.477 10.313c2.188 0 4.063.484 5.625 1.453 1.563.969 2.758 2.328 3.586 4.078.828 1.734 1.243 3.766 1.243 6.094v2.414h-17.743c.047 3.015.797 5.312 2.25 6.89 1.453 1.579 3.5 2.368 6.141 2.368 1.625 0 3.062-.149 4.312-.446a23.795 23.795 0 0 0 3.891-1.312v3.422a18.91 18.91 0 0 1-3.867 1.265c-1.266.266-2.766.399-4.5.399-2.469 0-4.625-.5-6.469-1.5-1.828-1.016-3.25-2.5-4.265-4.453-1.016-1.953-1.524-4.344-1.524-7.172 0-2.766.461-5.157 1.383-7.172.937-2.031 2.25-3.594 3.937-4.688 1.704-1.093 3.704-1.64 6-1.64Zm-.046 3.187c-2.079 0-3.735.68-4.969 2.04-1.235 1.359-1.969 3.257-2.203 5.695h13.593c-.015-1.532-.257-2.875-.726-4.032-.453-1.172-1.149-2.078-2.086-2.718-.938-.657-2.141-.985-3.609-.985Zm25.758-3.14c3.063 0 5.336.687 6.821 2.062 1.484 1.375 2.226 3.57 2.226 6.586V37h-2.836l-.75-3.797h-.187c-.719.938-1.469 1.727-2.25 2.367a8.375 8.375 0 0 1-2.719 1.43c-1.016.313-2.266.469-3.75.469-1.563 0-2.953-.274-4.172-.82a6.495 6.495 0 0 1-2.859-2.485c-.688-1.11-1.032-2.516-1.032-4.219 0-2.562 1.016-4.53 3.047-5.906 2.032-1.375 5.125-2.125 9.282-2.25l4.429-.187v-1.57c0-2.22-.476-3.774-1.429-4.665-.954-.89-2.297-1.336-4.032-1.336a12.53 12.53 0 0 0-3.843.586c-1.219.39-2.375.852-3.469 1.383l-1.195-2.953c1.156-.594 2.484-1.102 3.984-1.524a17.44 17.44 0 0 1 4.734-.632Zm5.203 13.453-3.914.164c-3.203.125-5.461.648-6.773 1.57-1.313.922-1.969 2.227-1.969 3.914 0 1.469.445 2.555 1.336 3.258.891.703 2.07 1.055 3.539 1.055 2.281 0 4.149-.633 5.602-1.899 1.453-1.265 2.179-3.164 2.179-5.695v-2.367ZM255.807 37h-3.914V.531h3.914V37Zm15.563-2.719c.641 0 1.297-.054 1.969-.164.672-.11 1.219-.242 1.641-.398v3.023c-.453.203-1.086.375-1.899.516-.797.14-1.578.21-2.344.21-1.359 0-2.593-.234-3.703-.702-1.109-.485-2-1.297-2.672-2.438-.656-1.14-.984-2.719-.984-4.734V14.359h-3.656v-1.898l3.68-1.524 1.546-5.578h2.344v5.954h7.524v3.046h-7.524v15.118c0 1.609.367 2.812 1.102 3.609.75.797 1.742 1.195 2.976 1.195ZM283.113.531V11.43c0 .625-.015 1.258-.046 1.898a18.161 18.161 0 0 1-.165 1.735h.258a7.632 7.632 0 0 1 2.016-2.274 8.81 8.81 0 0 1 2.812-1.406 11.071 11.071 0 0 1 3.329-.492c2.062 0 3.781.328 5.156.984a6.492 6.492 0 0 1 3.117 3.047c.703 1.375 1.055 3.156 1.055 5.344V37h-3.844V20.523c0-2.14-.492-3.742-1.477-4.804-.968-1.063-2.461-1.594-4.476-1.594-1.906 0-3.43.367-4.571 1.102-1.125.718-1.937 1.78-2.437 3.187-.484 1.406-.727 3.125-.727 5.156V37h-3.89V.531h3.89Zm34.876 36.938c-2.312 0-4.351-.477-6.117-1.43-1.765-.953-3.14-2.406-4.125-4.36-.984-1.952-1.476-4.413-1.476-7.382 0-3.11.515-5.649 1.546-7.617 1.047-1.985 2.485-3.453 4.313-4.407 1.828-.953 3.906-1.43 6.234-1.43 1.282 0 2.516.134 3.703.4 1.204.25 2.188.57 2.954.96l-1.172 3.258a20.197 20.197 0 0 0-2.719-.844c-1.016-.25-1.969-.375-2.859-.375-1.782 0-3.266.383-4.454 1.149-1.171.765-2.054 1.89-2.648 3.375-.578 1.484-.867 3.312-.867 5.484 0 2.078.281 3.852.844 5.32.578 1.47 1.429 2.594 2.554 3.375 1.141.766 2.563 1.149 4.266 1.149 1.359 0 2.586-.14 3.68-.422a21.33 21.33 0 0 0 2.976-1.031v3.468a12.04 12.04 0 0 1-2.883 1.008c-1.047.235-2.297.352-3.75.352Zm21.376-26.578c3.063 0 5.336.687 6.821 2.062 1.484 1.375 2.226 3.57 2.226 6.586V37h-2.836l-.75-3.797h-.187c-.719.938-1.469 1.727-2.25 2.367A8.375 8.375 0 0 1 339.67 37c-1.016.313-2.266.469-3.75.469-1.563 0-2.953-.274-4.172-.82a6.495 6.495 0 0 1-2.859-2.485c-.688-1.11-1.032-2.516-1.032-4.219 0-2.562 1.016-4.53 3.047-5.906 2.032-1.375 5.125-2.125 9.282-2.25l4.429-.187v-1.57c0-2.22-.476-3.774-1.429-4.665-.954-.89-2.297-1.336-4.032-1.336a12.53 12.53 0 0 0-3.843.586c-1.219.39-2.375.852-3.469 1.383l-1.195-2.953c1.156-.594 2.484-1.102 3.984-1.524a17.44 17.44 0 0 1 4.734-.632Zm5.203 13.453-3.914.164c-3.203.125-5.461.648-6.773 1.57-1.313.922-1.969 2.227-1.969 3.914 0 1.469.445 2.555 1.336 3.258.891.703 2.07 1.055 3.539 1.055 2.281 0 4.149-.633 5.602-1.899 1.453-1.265 2.179-3.164 2.179-5.695v-2.367Zm22.572-13.5c.515 0 1.054.031 1.617.094a11.97 11.97 0 0 1 1.5.21l-.492 3.61c-.422-.11-.891-.195-1.407-.258-.515-.063-1-.094-1.453-.094a6.953 6.953 0 0 0-2.929.633c-.907.406-1.704 1-2.391 1.781-.688.766-1.227 1.696-1.617 2.79-.391 1.078-.586 2.28-.586 3.609V37h-3.914V11.312h3.234l.422 4.735h.164a12.587 12.587 0 0 1 1.922-2.602 8.643 8.643 0 0 1 2.602-1.898c1-.469 2.109-.703 3.328-.703Zm16.899 0c2.188 0 4.063.484 5.625 1.453 1.563.969 2.758 2.328 3.586 4.078.828 1.734 1.242 3.766 1.242 6.094v2.414H376.75c.047 3.015.797 5.312 2.25 6.89 1.453 1.579 3.5 2.368 6.141 2.368 1.625 0 3.062-.149 4.312-.446a23.795 23.795 0 0 0 3.891-1.312v3.422a18.91 18.91 0 0 1-3.867 1.265c-1.266.266-2.766.399-4.5.399-2.469 0-4.625-.5-6.469-1.5-1.828-1.016-3.25-2.5-4.266-4.453-1.015-1.953-1.523-4.344-1.523-7.172 0-2.766.461-5.157 1.383-7.172.937-2.031 2.25-3.594 3.937-4.688 1.703-1.093 3.703-1.64 6-1.64Zm-.047 3.187c-2.078 0-3.734.68-4.969 2.04-1.234 1.359-1.968 3.257-2.203 5.695h13.594c-.016-1.532-.258-2.875-.726-4.032-.454-1.172-1.149-2.078-2.086-2.718-.938-.657-2.141-.985-3.61-.985Z"/>
</svg>